<svg width="356" height="85" viewBox="0 0 356 85" fill="none" xmlns="http://www.w3.org/2000/svg">
<path d="M5.80748 25.9999C6.83831 15.2259 15.8888 7 26.712 7H48.5573C59.4541 7 68.5405 15.3347 69.4792 26.1909L70.4073 36.9244C71.4005 48.4097 66.5062 59.6158 57.406 66.6928L50.5314 72.0389C42.9871 77.906 32.4327 77.9389 24.8518 72.1191L17.9344 66.8085C8.64287 59.6754 3.67755 48.2617 4.79319 36.6012L5.80748 25.9999Z" fill="#4F44E0"/>
<g filter="url(#filter0_d_218_38)">
<path d="M54 31L41.4002 43.2077C38.0257 46.4772 32.7039 46.6007 29.1814 43.4912L25 39.8" stroke="white" stroke-width="10" stroke-linecap="round"/>
</g>
<path d="M117.671 30.5039C117.482 28.5967 116.67 27.115 115.235 26.0589C113.801 25.0029 111.854 24.4748 109.395 24.4748C107.725 24.4748 106.314 24.7113 105.163 25.1841C104.013 25.6412 103.13 26.2796 102.515 27.0993C101.916 27.9189 101.617 28.8489 101.617 29.8892C101.585 30.7561 101.766 31.5127 102.161 32.159C102.57 32.8053 103.13 33.3648 103.839 33.8377C104.549 34.2948 105.368 34.6967 106.298 35.0435C107.228 35.3745 108.221 35.6583 109.277 35.8947L113.628 36.935C115.74 37.4079 117.679 38.0384 119.444 38.8265C121.209 39.6146 122.738 40.584 124.031 41.7347C125.323 42.8853 126.324 44.2409 127.034 45.8014C127.759 47.3619 128.129 49.1509 128.145 51.1685C128.129 54.1318 127.373 56.7011 125.875 58.8763C124.393 61.0358 122.25 62.7144 119.444 63.9124C116.654 65.0946 113.289 65.6857 109.348 65.6857C105.439 65.6857 102.034 65.0867 99.1341 63.8887C96.2496 62.6908 93.9956 60.9175 92.372 58.5689C90.7643 56.2046 89.921 53.2806 89.8422 49.7971H99.7489C99.8592 51.4207 100.324 52.7762 101.144 53.8639C101.979 54.9357 103.09 55.7475 104.478 56.2991C105.88 56.8351 107.465 57.103 109.23 57.103C110.964 57.103 112.469 56.8508 113.746 56.3464C115.038 55.842 116.039 55.1406 116.749 54.2421C117.458 53.3437 117.813 52.3113 117.813 51.1448C117.813 50.0572 117.489 49.143 116.843 48.4022C116.213 47.6613 115.283 47.0308 114.053 46.5107C112.84 45.9905 111.35 45.5176 109.585 45.0921L104.312 43.768C100.23 42.775 97.0062 41.2224 94.6418 39.1102C92.2775 36.9981 91.1032 34.1529 91.1189 30.5749C91.1032 27.6431 91.8834 25.0817 93.4597 22.8907C95.0517 20.6997 97.2348 18.9895 100.009 17.76C102.783 16.5306 105.936 15.9158 109.466 15.9158C113.06 15.9158 116.197 16.5306 118.877 17.76C121.572 18.9895 123.668 20.6997 125.166 22.8907C126.663 25.0817 127.436 27.6194 127.483 30.5039H117.671ZM144.532 65.6857C142.215 65.6857 140.15 65.2837 138.337 64.4798C136.525 63.6602 135.09 62.4544 134.034 60.8624C132.994 59.2546 132.474 57.2528 132.474 54.8569C132.474 52.8393 132.844 51.1448 133.585 49.7735C134.326 48.4022 135.335 47.2988 136.611 46.4634C137.888 45.628 139.338 44.9975 140.962 44.5719C142.601 44.1463 144.319 43.8468 146.116 43.6734C148.228 43.4528 149.931 43.2479 151.223 43.0587C152.516 42.8538 153.454 42.5543 154.037 42.1603C154.62 41.7662 154.912 41.183 154.912 40.4106V40.2688C154.912 38.7713 154.439 37.6128 153.493 36.7931C152.563 35.9735 151.239 35.5637 149.521 35.5637C147.708 35.5637 146.266 35.9656 145.194 36.7695C144.122 37.5576 143.413 38.5507 143.066 39.7486L133.751 38.992C134.223 36.7853 135.153 34.878 136.54 33.2702C137.928 31.6467 139.717 30.4015 141.908 29.5346C144.114 28.6519 146.668 28.2105 149.568 28.2105C151.586 28.2105 153.517 28.4469 155.361 28.9198C157.221 29.3927 158.868 30.1256 160.302 31.1187C161.752 32.1117 162.895 33.3885 163.731 34.9489C164.566 36.4937 164.984 38.3457 164.984 40.5052V65H155.432V59.9639H155.148C154.565 61.0988 153.785 62.0997 152.807 62.9666C151.83 63.8178 150.656 64.4877 149.284 64.9764C147.913 65.4492 146.329 65.6857 144.532 65.6857ZM147.417 58.7344C148.898 58.7344 150.206 58.4428 151.341 57.8596C152.476 57.2607 153.367 56.4568 154.013 55.448C154.659 54.4392 154.983 53.2964 154.983 52.0196V48.1657C154.667 48.3706 154.234 48.5598 153.682 48.7332C153.146 48.8908 152.539 49.0406 151.862 49.1824C151.184 49.3085 150.506 49.4267 149.828 49.5371C149.15 49.6316 148.536 49.7183 147.984 49.7971C146.802 49.9705 145.769 50.2464 144.887 50.6247C144.004 51.003 143.318 51.5152 142.83 52.1615C142.341 52.792 142.097 53.5801 142.097 54.5259C142.097 55.8972 142.593 56.9454 143.586 57.6705C144.595 58.3798 145.872 58.7344 147.417 58.7344ZM191.662 28.6834V36.2493H169.248V28.6834H191.662ZM174.378 65V26.0589C174.378 23.4266 174.891 21.2435 175.915 19.5097C176.955 17.7758 178.374 16.4754 180.171 15.6085C181.968 14.7415 184.009 14.3081 186.295 14.3081C187.839 14.3081 189.25 14.4263 190.527 14.6627C191.819 14.8991 192.781 15.1119 193.411 15.3011L191.615 22.8671C191.22 22.741 190.732 22.6227 190.149 22.5124C189.581 22.4021 188.998 22.3469 188.399 22.3469C186.917 22.3469 185.885 22.6937 185.302 23.3872C184.718 24.065 184.427 25.0186 184.427 26.2481V65H174.378ZM212.399 65.7093C208.664 65.7093 205.448 64.9527 202.753 63.4395C200.073 61.9106 198.008 59.7511 196.558 56.9612C195.108 54.1555 194.383 50.8375 194.383 47.0072C194.383 43.2715 195.108 39.9929 196.558 37.1714C198.008 34.35 200.05 32.1511 202.682 30.5749C205.33 28.9986 208.435 28.2105 211.997 28.2105C214.393 28.2105 216.624 28.5967 218.689 29.3691C220.769 30.1256 222.582 31.2684 224.127 32.7974C225.687 34.3263 226.901 36.2493 227.768 38.5664C228.635 40.8677 229.068 43.5631 229.068 46.6525V49.4188H198.402V43.1769H219.587C219.587 41.7268 219.272 40.4422 218.641 39.323C218.011 38.2039 217.136 37.3291 216.017 36.6986C214.914 36.0523 213.629 35.7292 212.163 35.7292C210.634 35.7292 209.278 36.0838 208.096 36.7931C206.93 37.4867 206.016 38.4246 205.354 39.6067C204.692 40.7732 204.353 42.0736 204.337 43.5079V49.4425C204.337 51.2394 204.668 52.792 205.33 54.1003C206.008 55.4086 206.961 56.4174 208.191 57.1267C209.42 57.836 210.878 58.1906 212.565 58.1906C213.684 58.1906 214.709 58.033 215.639 57.7178C216.569 57.4025 217.365 56.9296 218.027 56.2991C218.689 55.6686 219.193 54.8963 219.54 53.9821L228.855 54.5968C228.382 56.8351 227.413 58.7896 225.947 60.4604C224.497 62.1155 222.621 63.408 220.32 64.338C218.034 65.2522 215.394 65.7093 212.399 65.7093ZM245.047 16.5778V65H234.975V16.5778H245.047ZM258.668 78.6187C257.392 78.6187 256.194 78.5163 255.074 78.3114C253.971 78.1222 253.057 77.8779 252.332 77.5784L254.602 70.0597C255.784 70.4223 256.848 70.6193 257.794 70.6508C258.755 70.6824 259.583 70.4617 260.276 69.9888C260.985 69.5159 261.561 68.712 262.002 67.5772L262.593 66.0403L249.566 28.6834H260.158L267.677 55.3534H268.055L275.644 28.6834H286.308L272.192 68.9248C271.515 70.8794 270.593 72.5817 269.426 74.0319C268.276 75.4978 266.817 76.6248 265.052 77.4129C263.287 78.2168 261.159 78.6187 258.668 78.6187ZM310.326 28.6834V36.2493H287.912V28.6834H310.326ZM293.042 65V26.0589C293.042 23.4266 293.555 21.2435 294.579 19.5097C295.62 17.7758 297.038 16.4754 298.835 15.6085C300.632 14.7415 302.673 14.3081 304.959 14.3081C306.503 14.3081 307.914 14.4263 309.191 14.6627C310.484 14.8991 311.445 15.1119 312.076 15.3011L310.279 22.8671C309.885 22.741 309.396 22.6227 308.813 22.5124C308.245 22.4021 307.662 22.3469 307.063 22.3469C305.581 22.3469 304.549 22.6937 303.966 23.3872C303.383 24.065 303.091 25.0186 303.091 26.2481V65H293.042ZM322.032 78.6187C320.755 78.6187 319.557 78.5163 318.438 78.3114C317.334 78.1222 316.42 77.8779 315.695 77.5784L317.965 70.0597C319.147 70.4223 320.211 70.6193 321.157 70.6508C322.118 70.6824 322.946 70.4617 323.639 69.9888C324.349 69.5159 324.924 68.712 325.365 67.5772L325.956 66.0403L312.929 28.6834H323.521L331.04 55.3534H331.418L339.008 28.6834H349.671L335.556 68.9248C334.878 70.8794 333.956 72.5817 332.789 74.0319C331.639 75.4978 330.181 76.6248 328.415 77.4129C326.65 78.2168 324.522 78.6187 322.032 78.6187Z" fill="white"/>
<defs>
<filter id="filter0_d_218_38" x="11.9999" y="26" width="55.0001" height="42.744" filterUnits="userSpaceOnUse" color-interpolation-filters="sRGB">
<feFlood flood-opacity="0" result="BackgroundImageFix"/>
<feColorMatrix in="SourceAlpha" type="matrix" values="0 0 0 0 0 0 0 0 0 0 0 0 0 0 0 0 0 0 127 0" result="hardAlpha"/>
<feOffset dy="10"/>
<feGaussianBlur stdDeviation="4"/>
<feComposite in2="hardAlpha" operator="out"/>
<feColorMatrix type="matrix" values="0 0 0 0 0.223529 0 0 0 0 0.180392 0 0 0 0 0.8 0 0 0 1 0"/>
<feBlend mode="normal" in2="BackgroundImageFix" result="effect1_dropShadow_218_38"/>
<feBlend mode="normal" in="SourceGraphic" in2="effect1_dropShadow_218_38" result="shape"/>
</filter>
</defs>
</svg>
